<svg width="160" height="156" viewBox="0 0 160 156" fill="none" xmlns="http://www.w3.org/2000/svg">
<ellipse cx="41.629" cy="114.664" rx="41.629" ry="41.3364" fill="#FFEEFA"/>
<ellipse cx="118.371" cy="114.664" rx="41.629" ry="41.3364" fill="#FFEEFA"/>
<ellipse cx="118.371" cy="41.3364" rx="41.629" ry="41.3364" fill="#FFEEFA"/>
<ellipse cx="41.629" cy="41.3364" rx="41.629" ry="41.3364" fill="#FFEEFA"/>
<path d="M19.3016 34.8834H64.0016V38.0834H19.3016V34.8834ZM31.0516 49.9334H52.4516V52.8334H31.0516V49.9334ZM31.0516 58.0334H52.4516V61.0834H31.0516V58.0334ZM23.6016 27.8834H59.7016V30.9834H23.6016V27.8834ZM22.0016 20.9834H61.2516V24.0834H22.0016V20.9834ZM47.3516 28.8834C50.5016 37.3334 57.0016 44.5334 65.2016 47.7334C64.3516 48.4834 63.2016 49.9334 62.6516 50.8334C54.1516 47.0834 47.5516 39.3834 44.0016 29.8834L47.3516 28.8834ZM28.9516 42.0834H54.7016V62.5834H50.8516V45.1334H32.6516V62.7834H28.9516V42.0834ZM38.9516 16.7834L42.7516 17.0834C41.5516 30.1334 35.3516 44.1334 20.7016 51.6334C20.2016 50.6834 19.1016 49.3334 18.2016 48.6834C32.3516 41.8334 38.1016 28.6834 38.9516 16.7834Z" fill="#A9BAEE"/>
<path d="M49.2016 93.0362H52.7016C52.6516 113.336 52.6016 130.486 38.3016 139.036C37.7016 138.186 36.5516 136.986 35.7016 136.386C49.5016 128.486 49.1516 112.386 49.2016 93.0362ZM52.0016 110.686C53.6016 122.536 57.2516 131.786 65.1516 135.936C64.3516 136.636 63.2516 137.986 62.7516 138.886C54.3516 133.936 50.6516 124.236 48.8516 111.136L52.0016 110.686ZM59.9516 104.036L63.6016 105.036C61.9016 109.486 59.7016 114.786 57.8516 118.236L54.7016 117.186C56.5516 113.686 58.8016 108.086 59.9516 104.036ZM41.8516 104.086L45.0516 104.586C44.7016 109.436 43.5516 114.936 41.2516 118.386L38.0516 116.986C40.1516 114.036 41.4016 108.736 41.8516 104.086ZM27.7516 96.8862H31.4016V139.036H27.7516V96.8862ZM19.0516 107.386H38.8516V110.836H19.0516V107.386ZM27.7516 108.836L30.2016 109.886C28.1016 117.036 23.9516 125.836 19.9516 130.436C19.6016 129.386 18.6016 127.786 17.9516 126.836C21.7016 122.786 25.8516 115.086 27.7516 108.836ZM35.5016 93.4862L38.1016 96.3862C33.3016 98.1862 26.3016 99.5862 20.4016 100.386C20.2016 99.5862 19.7016 98.3362 19.2516 97.5362C25.0516 96.5362 31.6516 95.0862 35.5016 93.4862ZM31.3516 111.836C32.5016 113.036 36.7016 118.336 37.5516 119.636L35.4016 122.636C34.3016 120.436 30.9516 115.236 29.6016 113.386L31.3516 111.836Z" fill="#A9BAEE"/>
<path d="M112.544 92.7862L116.194 94.0862C111.794 101.386 105.144 107.936 98.6437 112.136C97.9937 111.436 96.4937 110.086 95.5937 109.486C102.244 105.636 108.694 99.4862 112.544 92.7862ZM129.444 97.9362H130.194L130.894 97.7362L133.444 99.2362C126.694 112.886 111.244 121.136 96.8437 124.736C96.4937 123.736 95.6437 122.186 94.9437 121.336C108.644 118.386 123.694 110.286 129.444 98.5362V97.9362ZM109.294 101.286C115.594 110.336 128.344 117.236 142.144 119.936C141.344 120.786 140.244 122.336 139.744 123.386C125.794 120.286 113.094 113.036 105.944 102.886L109.294 101.286ZM110.644 122.386L112.794 119.686C117.944 121.036 124.294 123.636 127.894 125.536L125.794 128.536C122.294 126.536 115.844 123.836 110.644 122.386ZM102.794 132.936L105.044 129.686C114.344 130.986 126.094 133.786 132.944 136.036L130.794 139.586C124.194 137.186 112.294 134.336 102.794 132.936ZM110.844 97.9362H130.244V101.336H108.444L110.844 97.9362Z" fill="#A9BAEE"/>
<path d="M97.1437 19.0834H139.594V22.2334H97.1437V19.0834ZM109.844 47.9334C115.294 54.9334 127.344 58.5334 141.794 59.4334C141.044 60.2834 140.144 61.8334 139.644 62.8334C124.944 61.5834 112.944 57.5334 106.644 49.1334L109.844 47.9334ZM129.494 46.3334H130.294L130.944 46.1334L133.294 47.6834C126.544 57.3334 110.994 61.3334 96.6937 62.8334C96.3937 61.8834 95.7937 60.5334 95.1937 59.6834C108.744 58.6834 123.744 54.8834 129.494 46.8334V46.3334ZM111.844 42.5334L115.694 43.3334C111.894 47.8834 106.144 51.9334 97.9937 54.8834C97.4937 54.0334 96.4437 52.7834 95.6937 52.2334C103.494 49.7834 108.994 46.0834 111.844 42.5334ZM116.244 20.6834L120.544 20.8334C119.794 23.0834 118.944 25.2834 118.244 26.8334L114.794 26.5334C115.344 24.7834 115.944 22.3834 116.244 20.6834ZM105.644 32.8334V35.7834H130.994V32.8334H105.644ZM105.644 38.2334V41.2334H130.994V38.2334H105.644ZM105.644 27.4834V30.3834H130.994V27.4834H105.644ZM101.994 25.0834H134.794V43.6834H101.994V25.0834ZM110.494 46.3334H130.644V49.0834H107.794L110.494 46.3334Z" fill="#A9BAEE"/>
</svg>
