<?xml version="1.0" encoding="UTF-8"?>
<svg id="_레이어_2" data-name="레이어 2" xmlns="http://www.w3.org/2000/svg" viewBox="0 0 594 479.33">
  <defs>
    <style>
      .cls-1 {
        fill: #f0638e;
        stroke: #e3ceff;
        stroke-miterlimit: 10;
        stroke-width: 2px;
      }
    </style>
  </defs>
  <g id="_레이어_1-2" data-name="레이어 1">
    <g>
      <path class="cls-1" d="m106.2,47.23c6.48,0,12.45.63,17.91,1.89,5.46,1.26,10.17,3.33,14.13,6.21s7.05,6.72,9.27,11.52c2.22,4.8,3.33,10.74,3.33,17.82s-1.35,13.41-4.05,18.99c-2.7,5.58-6.36,10.29-10.98,14.13-4.62,3.84-9.93,6.78-15.93,8.82-6,2.04-12.36,3.06-19.08,3.06h-34.92l-9.72,46.08h-28.08L54.72,47.23h51.48Zm-6.84,60.48c7.2,0,12.87-1.83,17.01-5.49,4.14-3.66,6.21-9.33,6.21-17.01,0-3.24-.57-5.91-1.71-8.01-1.14-2.1-2.67-3.72-4.59-4.86-1.92-1.14-4.05-1.95-6.39-2.43-2.34-.48-4.77-.72-7.29-.72h-24.12l-7.92,38.52h28.8Z"/>
      <path class="cls-1" d="m199.44,47.23l-27.36,128.52h-25.38l27.18-128.52h25.56Z"/>
      <path class="cls-1" d="m211.5,96.28c2.76-3.9,6.12-7.05,10.08-9.45,3.96-2.4,8.4-4.11,13.32-5.13,4.92-1.02,10.02-1.53,15.3-1.53,4.2,0,8.58.3,13.14.9,4.56.6,8.76,1.77,12.6,3.51,3.84,1.74,6.99,4.2,9.45,7.38,2.46,3.18,3.63,7.41,3.51,12.69,0,4.44-.66,9.66-1.98,15.66l-8.28,37.44c-.48,1.68-.81,3.75-.99,6.21-.18,2.46-.27,4.59-.27,6.39,0,1.56.3,3.36.9,5.4h-25.56v-9.18c-3.48,3.96-7.74,6.87-12.78,8.73-5.04,1.86-10.26,2.79-15.66,2.79-5.04,0-9.45-.66-13.23-1.98-3.78-1.32-6.93-3.09-9.45-5.31-2.52-2.22-4.38-4.8-5.58-7.74-1.2-2.94-1.8-6.03-1.8-9.27,0-9,3.09-16.2,9.27-21.6,6.18-5.4,14.91-8.76,26.19-10.08,6-.72,11.22-1.26,15.66-1.62,4.44-.36,8.13-.93,11.07-1.71,2.94-.78,5.13-1.92,6.57-3.42,1.44-1.5,2.16-3.75,2.16-6.75,0-2.4-.54-4.32-1.62-5.76-1.08-1.44-2.43-2.58-4.05-3.42-1.62-.84-3.36-1.41-5.22-1.71-1.86-.3-3.63-.45-5.31-.45-4.56,0-8.64,1.11-12.24,3.33-3.6,2.22-5.82,5.67-6.66,10.35h-23.94c.84-5.88,2.64-10.77,5.4-14.67Zm38.16,38.34c-3.72.42-7.44.75-11.16.99-2.4.24-4.74.63-7.02,1.17-2.28.54-4.29,1.35-6.03,2.43-1.74,1.08-3.15,2.55-4.23,4.41-1.08,1.86-1.62,4.23-1.62,7.11,0,3.48,1.41,6.09,4.23,7.83,2.82,1.74,6.09,2.61,9.81,2.61,3.96,0,7.29-.63,9.99-1.89,2.7-1.26,4.98-2.88,6.84-4.86,1.86-1.98,3.33-4.23,4.41-6.75,1.08-2.52,1.98-5.04,2.7-7.56l2.52-9c-3.24,1.92-6.72,3.09-10.44,3.51Z"/>
      <path class="cls-1" d="m330.48,198.52c-2.28,2.58-4.8,4.59-7.56,6.03-2.76,1.44-5.91,2.43-9.45,2.97-3.54.54-7.71.81-12.51.81-2.16,0-4.38-.12-6.66-.36-2.28-.24-4.56-.42-6.84-.54l4.32-21.24c1.68,0,3.39.18,5.13.54,1.74.36,3.45.54,5.13.54,3,0,5.4-.45,7.2-1.35,1.8-.9,3.27-1.98,4.41-3.24,1.14-1.26,2.1-2.61,2.88-4.05.78-1.44,1.59-2.7,2.43-3.78l-16.56-92.16h26.28l8.1,66.6h.36l32.22-66.6h27l-59.22,106.02c-2.16,3.96-4.38,7.23-6.66,9.81Z"/>
      <path class="cls-1" d="m502.74,175.12c-5.4,1.98-11.52,2.97-18.36,2.97-5.16,0-10.11-.78-14.85-2.34-4.74-1.56-8.94-3.84-12.6-6.84-3.66-3-6.57-6.69-8.73-11.07-2.16-4.38-3.24-9.39-3.24-15.03s.96-10.23,2.88-14.49c1.92-4.26,4.47-8.04,7.65-11.34,3.18-3.3,6.87-6.18,11.07-8.64,4.2-2.46,8.58-4.59,13.14-6.39-2.04-3.48-3.99-7.11-5.85-10.89-1.86-3.78-2.79-7.71-2.79-11.79,0-5.28.87-9.99,2.61-14.13,1.74-4.14,4.2-7.65,7.38-10.53,3.18-2.88,6.93-5.07,11.25-6.57,4.32-1.5,9.06-2.25,14.22-2.25,4.44,0,8.7.6,12.78,1.8,4.08,1.2,7.65,3.03,10.71,5.49,3.06,2.46,5.52,5.49,7.38,9.09,1.86,3.6,2.79,7.86,2.79,12.78,0,4.44-.9,8.4-2.7,11.88-1.8,3.48-4.11,6.63-6.93,9.45s-5.97,5.34-9.45,7.56c-3.48,2.22-6.96,4.23-10.44,6.03l13.86,22.32c2.4-2.52,4.35-5.34,5.85-8.46,1.5-3.12,2.67-6.36,3.51-9.72h22.86c-1.32,6.96-3.69,13.59-7.11,19.89-3.42,6.3-7.83,11.85-13.23,16.65l16.38,25.2h-28.08l-5.76-10.08c-5.4,4.32-10.8,7.47-16.2,9.45Zm-20.07-51.84c-2.46,1.38-4.65,2.97-6.57,4.77-1.92,1.8-3.48,3.87-4.68,6.21-1.2,2.34-1.8,5.19-1.8,8.55,0,2.16.48,4.14,1.44,5.94.96,1.8,2.25,3.33,3.87,4.59,1.62,1.26,3.45,2.22,5.49,2.88,2.04.66,4.08.99,6.12.99,3.96,0,7.74-.99,11.34-2.97,3.6-1.98,6.9-4.17,9.9-6.57l-17.64-28.62c-2.52,1.44-5.01,2.85-7.47,4.23Zm13.41-37.71c1.44,2.88,3,5.7,4.68,8.46,1.8-.84,3.75-1.89,5.85-3.15,2.1-1.26,4.08-2.7,5.94-4.32,1.86-1.62,3.42-3.39,4.68-5.31,1.26-1.92,1.89-3.96,1.89-6.12,0-3.72-1.08-6.69-3.24-8.91-2.16-2.22-4.86-3.33-8.1-3.33-3.6,0-6.81,1.08-9.63,3.24-2.82,2.16-4.23,5.46-4.23,9.9,0,3.48.72,6.66,2.16,9.54Z"/>
      <path class="cls-1" d="m109.53,263.23c6.48,0,12.45.63,17.91,1.89,5.46,1.26,10.17,3.33,14.13,6.21s7.05,6.72,9.27,11.52c2.22,4.8,3.33,10.74,3.33,17.82s-1.35,13.41-4.05,18.99c-2.7,5.58-6.36,10.29-10.98,14.13-4.62,3.84-9.93,6.78-15.93,8.82-6,2.04-12.36,3.06-19.08,3.06h-34.92l-9.72,46.08h-28.08l26.64-128.52h51.48Zm-6.84,60.48c7.2,0,12.87-1.83,17.01-5.49,4.14-3.66,6.21-9.33,6.21-17.01,0-3.24-.57-5.91-1.71-8.01-1.14-2.1-2.67-3.72-4.59-4.86-1.92-1.14-4.05-1.95-6.39-2.43-2.34-.48-4.77-.72-7.29-.72h-24.12l-7.92,38.52h28.8Z"/>
      <path class="cls-1" d="m168.21,312.28c2.76-3.9,6.12-7.05,10.08-9.45,3.96-2.4,8.4-4.11,13.32-5.13,4.92-1.02,10.02-1.53,15.3-1.53,4.2,0,8.58.3,13.14.9,4.56.6,8.76,1.77,12.6,3.51,3.84,1.74,6.99,4.2,9.45,7.38,2.46,3.18,3.63,7.41,3.51,12.69,0,4.44-.66,9.66-1.98,15.66l-8.28,37.44c-.48,1.68-.81,3.75-.99,6.21-.18,2.46-.27,4.59-.27,6.39,0,1.56.3,3.36.9,5.4h-25.56v-9.18c-3.48,3.96-7.74,6.87-12.78,8.73-5.04,1.86-10.26,2.79-15.66,2.79-5.04,0-9.45-.66-13.23-1.98-3.78-1.32-6.93-3.09-9.45-5.31-2.52-2.22-4.38-4.8-5.58-7.74-1.2-2.94-1.8-6.03-1.8-9.27,0-9,3.09-16.2,9.27-21.6,6.18-5.4,14.91-8.76,26.19-10.08,6-.72,11.22-1.26,15.66-1.62,4.44-.36,8.13-.93,11.07-1.71,2.94-.78,5.13-1.92,6.57-3.42,1.44-1.5,2.16-3.75,2.16-6.75,0-2.4-.54-4.32-1.62-5.76-1.08-1.44-2.43-2.58-4.05-3.42-1.62-.84-3.36-1.41-5.22-1.71-1.86-.3-3.63-.45-5.31-.45-4.56,0-8.64,1.11-12.24,3.33-3.6,2.22-5.82,5.67-6.66,10.35h-23.94c.84-5.88,2.64-10.77,5.4-14.67Zm38.16,38.34c-3.72.42-7.44.75-11.16.99-2.4.24-4.74.63-7.02,1.17-2.28.54-4.29,1.35-6.03,2.43-1.74,1.08-3.15,2.55-4.23,4.41-1.08,1.86-1.62,4.23-1.62,7.11,0,3.48,1.41,6.09,4.23,7.83,2.82,1.74,6.09,2.61,9.81,2.61,3.96,0,7.29-.63,9.99-1.89,2.7-1.26,4.98-2.88,6.84-4.86,1.86-1.98,3.33-4.23,4.41-6.75,1.08-2.52,1.98-5.04,2.7-7.56l2.52-9c-3.24,1.92-6.72,3.09-10.44,3.51Z"/>
      <path class="cls-1" d="m316.89,391.75l2.88-12.96h-.36c-8.28,10.2-19.14,15.3-32.58,15.3-18.12,0-27.18-8.28-27.18-24.84,0-.96.09-2.19.27-3.69.18-1.5.42-3.03.72-4.59.3-1.56.6-3.03.9-4.41.3-1.38.57-2.49.81-3.33l11.52-54.54h25.56l-11.34,54.54c-.24.72-.45,1.59-.63,2.61-.18,1.02-.36,2.07-.54,3.15-.18,1.08-.3,2.13-.36,3.15-.06,1.02-.09,1.83-.09,2.43,0,2.76,1.29,5.04,3.87,6.84,2.58,1.8,5.37,2.7,8.37,2.7,3.84,0,7.23-.75,10.17-2.25,2.94-1.5,5.46-3.45,7.56-5.85,2.1-2.4,3.84-5.16,5.22-8.28,1.38-3.12,2.43-6.3,3.15-9.54l10.44-49.5h25.56l-19.44,93.06h-24.48Z"/>
      <path class="cls-1" d="m425.16,316.6c-2.22-2.22-5.85-3.33-10.89-3.33-4.56,0-8.31.69-11.25,2.07-2.94,1.38-4.41,3.75-4.41,7.11,0,2.04.87,3.78,2.61,5.22,1.74,1.44,4.77,2.82,9.09,4.14l12.78,4.14c3.48,1.08,6.69,2.34,9.63,3.78,2.94,1.44,5.52,3.21,7.74,5.31,2.22,2.1,3.96,4.59,5.22,7.47s1.89,6.24,1.89,10.08c0,5.76-1.29,10.65-3.87,14.67-2.58,4.02-5.97,7.29-10.17,9.81-4.2,2.52-8.94,4.32-14.22,5.4-5.28,1.08-10.62,1.62-16.02,1.62-4.56,0-9.18-.48-13.86-1.44-4.68-.96-8.91-2.55-12.69-4.77-3.78-2.22-6.87-5.16-9.27-8.82-2.4-3.66-3.6-8.25-3.6-13.77v-3.78h23.58v3.06c0,2.16.54,4.02,1.62,5.58,1.08,1.56,2.49,2.85,4.23,3.87,1.74,1.02,3.72,1.8,5.94,2.34,2.22.54,4.41.81,6.57.81,1.92,0,3.84-.18,5.76-.54,1.92-.36,3.66-.99,5.22-1.89,1.56-.9,2.82-2.04,3.78-3.42.96-1.38,1.44-3.15,1.44-5.31,0-3.24-.84-5.52-2.52-6.84-1.68-1.32-3.9-2.46-6.66-3.42l-19.62-6.3c-3.24-1.08-6.09-2.22-8.55-3.42-2.46-1.2-4.56-2.7-6.3-4.5-1.74-1.8-3.06-3.96-3.96-6.48-.9-2.52-1.35-5.64-1.35-9.36,0-5.52,1.29-10.14,3.87-13.86,2.58-3.72,5.91-6.75,9.99-9.09,4.08-2.34,8.55-4.02,13.41-5.04,4.86-1.02,9.51-1.53,13.95-1.53,5.04,0,9.9.42,14.58,1.26,4.68.84,8.79,2.37,12.33,4.59,3.54,2.22,6.33,5.25,8.37,9.09,2.04,3.84,3,8.76,2.88,14.76h-23.76c-.12-3.96-1.29-7.05-3.51-9.27Z"/>
      <path class="cls-1" d="m485.01,353.05v3.78c0,5.4,1.68,9.78,5.04,13.14,3.36,3.36,8.52,5.04,15.48,5.04,2.52,0,4.77-.39,6.75-1.17,1.98-.78,3.72-1.77,5.22-2.97,1.5-1.2,2.82-2.58,3.96-4.14,1.14-1.56,2.19-3.06,3.15-4.5h25.56c-2.04,5.28-4.44,9.9-7.2,13.86-2.76,3.96-6.06,7.29-9.9,9.99-3.84,2.7-8.31,4.71-13.41,6.03-5.1,1.32-11.01,1.98-17.73,1.98-6.24,0-11.91-.84-17.01-2.52-5.1-1.68-9.45-4.23-13.05-7.65-3.6-3.42-6.39-7.65-8.37-12.69-1.98-5.04-2.97-10.92-2.97-17.64,0-7.44,1.2-14.61,3.6-21.51,2.4-6.9,5.79-13.02,10.17-18.36,4.38-5.34,9.75-9.6,16.11-12.78,6.36-3.18,13.5-4.77,21.42-4.77,6.48,0,12.39.84,17.73,2.52,5.34,1.68,9.9,4.23,13.68,7.65,3.78,3.42,6.72,7.68,8.82,12.78,2.1,5.1,3.15,11.01,3.15,17.73,0,4.56-.48,9.42-1.44,14.58h-68.58c-.12.6-.18,1.14-.18,1.62Zm44.91-24.93c-.42-2.34-1.23-4.47-2.43-6.39-1.2-1.92-2.94-3.45-5.22-4.59-2.28-1.14-5.28-1.71-9-1.71s-6.78.54-9.54,1.62c-2.76,1.08-5.16,2.52-7.2,4.32-2.04,1.8-3.75,3.9-5.13,6.3-1.38,2.4-2.55,4.92-3.51,7.56h42.66c0-2.4-.21-4.77-.63-7.11Z"/>
    </g>
  </g>
</svg>